<?xml version="1.0" standalone="no"?>
<!DOCTYPE svg PUBLIC "-//W3C//DTD SVG 20010904//EN"
 "http://www.w3.org/TR/2001/REC-SVG-20010904/DTD/svg10.dtd">
<svg version="1.0" xmlns="http://www.w3.org/2000/svg"
 width="800.000000pt" height="800.000000pt" viewBox="0 0 800.000000 800.000000"
 preserveAspectRatio="xMidYMid meet">
<metadata>
Created by potrace 1.14, written by Peter Selinger 2001-2017
</metadata>
<g transform="translate(0.000000,800.000000) scale(0.100000,-0.100000)"
fill="#000000" stroke="none">
<path d="M4424 7541 c-42 -18 -92 -94 -199 -305 -94 -184 -113 -214 -130 -211
-122 26 -1308 114 -1360 101 -33 -8 -40 -29 -55 -161 -6 -61 -17 -146 -23
-190 l-12 -80 -290 -36 c-639 -80 -702 -94 -726 -151 -10 -26 -10 -55 4 -172
23 -189 23 -183 -16 -192 -17 -3 -54 -17 -82 -29 -48 -22 -420 -153 -595 -210
-113 -37 -137 -50 -160 -88 -38 -61 -18 -160 75 -387 108 -260 433 -1141 442
-1196 8 -47 -14 -78 -169 -245 -427 -456 -538 -583 -538 -611 0 -26 90 -269
292 -793 38 -99 103 -269 144 -379 135 -357 205 -538 226 -583 29 -63 59 -73
206 -73 65 0 173 -3 238 -6 l120 -7 16 -56 c37 -124 162 -266 331 -378 204
-135 539 -288 814 -372 598 -184 1389 -293 2008 -278 251 7 332 14 530 48 393
67 649 253 697 507 12 64 93 418 108 472 6 23 21 42 40 54 59 34 156 134 183
188 37 73 51 156 42 258 l-7 85 185 180 c181 176 351 360 388 420 11 17 24 46
29 65 6 19 39 267 75 550 36 283 85 673 110 865 25 193 45 366 45 386 0 21
-10 50 -23 70 -27 40 -50 50 -441 194 -153 57 -285 110 -293 118 -17 16 -5 48
314 851 119 301 155 403 160 450 9 108 23 98 -502 361 -253 127 -550 273 -660
324 -1328 619 -1387 645 -1455 648 -36 2 -74 -1 -86 -6z m228 -112 c46 -16
106 -43 133 -58 28 -16 226 -110 440 -211 215 -100 624 -296 910 -435 286
-139 585 -284 665 -323 110 -52 155 -80 183 -111 67 -75 60 -104 -166 -616
-60 -137 -127 -293 -149 -345 -22 -52 -59 -135 -82 -185 -24 -49 -51 -111 -61
-138 -10 -26 -21 -47 -25 -47 -7 0 -153 50 -158 54 -1 2 5 22 13 46 17 48 20
96 6 104 -11 7 -47 -48 -56 -87 -10 -37 -18 -40 -65 -26 -31 10 -39 16 -34 28
16 36 53 153 60 187 12 63 -17 36 -71 -69 -27 -52 -53 -98 -56 -102 -4 -3 -19
-3 -33 1 -20 5 -25 11 -20 23 26 60 64 177 64 198 0 45 -24 19 -75 -82 -27
-55 -51 -102 -52 -103 -2 -4 -73 18 -73 21 0 1 7 27 15 57 20 77 2 87 -29 16
-14 -31 -28 -56 -31 -56 -8 0 -154 52 -223 79 -71 28 -102 27 -172 -9 -33 -16
-63 -30 -68 -30 -13 0 -70 154 -87 236 -7 39 -19 122 -25 185 -19 202 -21 219
-31 225 -11 7 -61 -23 -179 -107 -119 -83 -212 -126 -460 -209 -118 -40 -265
-96 -325 -125 -98 -47 -119 -62 -186 -132 -80 -84 -134 -170 -166 -263 -10
-30 -46 -106 -79 -170 -60 -112 -63 -115 -98 -118 -20 -2 -36 -1 -36 1 0 3 52
112 115 243 63 131 115 244 115 251 0 26 -30 12 -54 -24 -14 -21 -76 -134
-138 -252 -100 -190 -116 -215 -143 -222 -16 -5 -31 -6 -34 -4 -2 3 70 155
161 338 91 182 168 342 172 354 11 34 -13 38 -45 7 -16 -15 -104 -170 -196
-343 -91 -174 -171 -325 -177 -336 -6 -11 -15 -23 -21 -27 -11 -8 -55 -11 -55
-4 0 2 56 124 125 270 69 147 125 273 125 281 0 8 -5 15 -10 15 -18 0 -53 -48
-100 -138 -25 -48 -88 -167 -140 -264 l-94 -178 -44 0 c-31 0 -43 4 -39 13 3
6 62 131 132 276 69 146 125 273 123 284 -6 41 -57 -23 -132 -166 -40 -78
-106 -203 -144 -277 -68 -129 -72 -135 -106 -141 -21 -3 -36 -2 -36 4 0 6 67
148 149 316 82 168 180 371 216 451 133 287 274 599 375 830 56 129 106 240
111 245 13 17 277 552 351 710 70 150 96 190 133 205 40 17 105 10 187 -21z
m-1447 -395 c223 -15 333 -25 535 -49 69 -8 173 -17 233 -21 59 -3 107 -10
107 -15 0 -6 -8 -24 -17 -42 -9 -18 -47 -101 -84 -186 l-67 -154 -86 2 c-47 1
-100 6 -118 12 -18 5 -118 14 -223 20 -308 17 -277 18 -293 -15 -17 -33 -30
-122 -38 -260 l-6 -99 -38 42 c-42 46 -74 52 -111 22 -24 -19 -24 -19 -47 2
-32 30 -94 29 -124 -1 -18 -17 -23 -34 -22 -71 0 -40 10 -65 59 -149 39 -67
65 -102 76 -102 20 0 104 91 155 168 40 60 60 68 50 20 -7 -33 -35 -293 -55
-498 -6 -58 -15 -179 -21 -270 -6 -91 -17 -203 -25 -250 -8 -47 -21 -168 -31
-270 -9 -102 -17 -186 -18 -186 0 -1 -16 -5 -33 -9 -39 -8 -38 -27 -19 230 13
176 10 230 -11 189 -6 -10 -18 -100 -27 -199 -21 -222 -22 -225 -45 -225 -13
0 -17 6 -15 23 5 31 34 467 34 511 0 40 -13 47 -30 15 -6 -11 -23 -141 -37
-290 l-27 -269 -24 0 c-23 0 -23 2 -18 63 19 195 26 361 17 370 -18 18 -27
-31 -46 -235 -18 -194 -18 -197 -43 -203 -13 -3 -26 -4 -29 -2 -2 3 4 113 13
246 10 132 14 244 10 248 -19 20 -33 -40 -49 -214 -28 -298 -25 -280 -59 -285
-16 -3 -31 -1 -34 3 -11 18 47 686 81 924 7 55 17 136 20 180 9 112 57 531
105 910 22 176 40 332 40 347 0 53 -9 53 435 22z m-562 -441 c-2 -21 -14 -117
-26 -213 l-22 -175 -30 -2 c-65 -4 -136 -14 -277 -40 -81 -15 -150 -24 -153
-21 -3 2 -14 46 -25 97 -24 108 -32 123 -81 150 -44 25 -75 26 -129 5 -45 -18
-70 -55 -70 -104 0 -43 28 -229 41 -267 12 -37 56 -67 114 -78 21 -3 56 -16
78 -26 39 -21 77 -18 77 5 0 7 -10 26 -21 40 -22 27 -22 28 -2 54 41 55 38 71
109 -478 19 -146 41 -319 49 -385 8 -66 27 -205 41 -308 14 -103 23 -194 20
-202 -3 -8 -16 -15 -30 -15 -21 0 -25 6 -30 48 -19 134 -53 151 -47 23 3 -82
3 -83 -20 -79 -23 3 -25 9 -36 113 -14 116 -26 160 -43 150 -10 -6 -7 -131 6
-228 4 -35 3 -38 -18 -35 -19 2 -24 11 -30 50 -3 26 -9 52 -13 57 -16 26 -25
6 -25 -54 0 -58 -2 -65 -20 -65 -21 0 -23 4 -41 110 -6 36 -13 69 -16 73 -13
21 -23 -24 -23 -99 0 -75 -2 -82 -22 -87 -29 -8 -38 -1 -38 32 0 23 -76 729
-170 1585 -28 252 -28 260 13 279 31 15 274 50 607 88 91 10 190 23 220 28 92
14 89 16 83 -26z m847 -28 c102 -8 212 -19 245 -25 33 -5 82 -12 108 -16 40
-4 47 -8 42 -22 -4 -9 -10 -25 -12 -34 -7 -24 -17 -23 -61 7 -20 14 -40 25
-44 25 -12 0 -10 -48 2 -55 6 -3 10 -19 10 -35 l0 -28 -32 30 c-63 58 -133 65
-188 18 -19 -16 -39 -29 -44 -30 -5 0 -26 16 -47 35 -33 29 -47 35 -84 35 -51
0 -114 -22 -132 -46 -6 -9 -16 -13 -22 -9 -14 8 -14 93 0 134 13 37 3 37 259
16z m320 -217 c0 -7 -5 -20 -10 -28 -8 -12 -10 -9 -10 13 0 15 5 27 10 27 6 0
10 -6 10 -12z m-1796 -17 c40 -44 71 -248 43 -285 -14 -19 -15 -19 -51 3 -28
18 -40 20 -50 12 -25 -21 -43 13 -55 106 -16 129 -15 149 11 167 31 22 81 20
102 -3z m1256 -139 c143 -273 182 -342 198 -341 10 0 41 33 69 72 29 40 77
103 108 141 30 38 61 78 70 90 8 12 -11 -33 -41 -99 -31 -66 -71 -150 -88
-187 -28 -62 -34 -68 -66 -73 -34 -5 -178 -51 -294 -94 -77 -29 -85 -25 -75
36 4 26 10 111 14 188 9 193 33 355 53 355 4 0 27 -39 52 -88z m-683 -153 c-4
-65 -14 -180 -23 -256 -9 -76 -19 -203 -22 -282 -6 -123 -10 -146 -25 -155
-23 -14 -29 -4 -64 99 -22 66 -27 98 -28 183 0 89 -3 105 -18 113 -15 9 -17
19 -11 68 6 56 5 60 -37 124 -24 37 -48 66 -53 64 -11 -4 -47 -99 -42 -112 2
-5 11 7 21 28 11 20 22 37 25 37 11 0 38 -34 48 -60 30 -81 20 -103 -22 -53
l-24 27 -7 -32 c-4 -22 -12 -32 -25 -32 -18 0 -18 -2 -4 -35 11 -26 12 -41 4
-55 -14 -26 8 -63 33 -56 12 3 21 -3 27 -20 5 -13 17 -24 26 -24 14 0 15 -7
10 -40 -3 -22 -15 -49 -26 -60 -14 -14 -20 -33 -20 -64 0 -28 -7 -52 -18 -67
-21 -25 -12 -66 -87 416 -23 151 -38 284 -32 298 7 19 365 82 391 69 5 -3 6
-56 3 -123z m-863 -356 c26 -208 49 -386 51 -396 2 -9 -1 -15 -6 -11 -5 3 -9
11 -9 19 0 13 -44 32 -126 54 -37 10 -44 17 -63 60 -11 28 -21 57 -21 65 0 21
33 41 100 60 69 20 84 30 77 50 -8 21 -34 15 -147 -33 -72 -30 -85 -40 -88
-61 -2 -14 29 -106 68 -204 39 -98 74 -192 77 -208 l6 -31 -49 29 c-27 15 -69
41 -93 56 -69 43 -74 40 -115 -67 -42 -111 -43 -121 -14 -137 12 -7 58 -37
102 -67 60 -40 84 -51 96 -44 8 6 22 43 31 84 17 82 35 122 51 117 13 -5 54
-98 128 -292 50 -132 52 -140 34 -153 -10 -7 -21 -13 -25 -13 -5 0 -30 44 -56
98 -58 118 -72 98 -23 -35 17 -48 29 -92 26 -100 -10 -26 -32 -12 -56 35 -29
58 -40 35 -16 -35 9 -26 16 -47 16 -48 0 -4 -220 -195 -242 -209 -21 -14 -28
-14 -34 -4 -15 23 -254 626 -339 853 -45 122 -85 243 -89 270 -4 26 -14 58
-21 69 -26 41 -97 231 -98 264 -1 18 6 39 14 48 9 8 87 41 175 73 87 33 256
95 374 139 118 44 224 81 236 81 19 1 22 -16 68 -376z m3486 -72 c5 -11 9 -37
9 -58 -2 -30 -3 -32 -6 -10 -3 15 -17 37 -33 49 -16 12 -27 25 -24 30 10 15
43 8 54 -11z m-95 -20 c7 -12 -12 -24 -25 -16 -11 7 -4 25 10 25 5 0 11 -4 15
-9z m-75 -61 c0 -26 27 -37 51 -22 24 16 29 15 29 -3 0 -8 -12 -18 -27 -21
-16 -4 -68 -27 -118 -51 -49 -23 -94 -43 -100 -43 -10 0 -45 54 -45 70 0 4 6
10 13 13 6 3 48 22 92 41 93 41 105 43 105 16z m-2638 -45 c0 -5 -5 -11 -11
-13 -6 -2 -11 4 -11 13 0 9 5 15 11 13 6 -2 11 -8 11 -13z m2389 -85 c9 -45 3
-51 -21 -20 -25 32 -26 63 -3 58 10 -2 20 -17 24 -38z m463 -2 c8 -24 20 -72
27 -108 6 -36 17 -80 25 -99 8 -18 14 -39 14 -45 0 -12 -89 -61 -96 -53 -2 2
-7 17 -10 34 -5 27 -2 33 22 45 20 9 30 22 32 41 3 27 2 29 -33 25 -29 -2 -41
2 -55 20 -18 22 -40 102 -40 147 0 24 5 26 82 33 11 1 21 -12 32 -40z m-2799
-62 c19 -62 19 -77 1 -102 -12 -15 -17 -17 -28 -6 -10 10 -10 17 0 32 17 27
16 34 -13 76 -27 40 -32 70 -12 77 17 7 35 -20 52 -77z m2225 48 c0 -9 -7 -14
-17 -12 -25 5 -28 28 -4 28 12 0 21 -6 21 -16z m415 -55 c11 -33 16 -69 12
-102 -4 -46 -2 -53 31 -89 43 -47 36 -71 -22 -76 l-36 -3 0 44 c0 37 -4 46
-25 55 -22 10 -27 8 -45 -19 -24 -32 -21 -74 7 -117 12 -19 12 -26 2 -39 -12
-13 -15 -13 -31 7 -10 12 -25 47 -34 76 -8 30 -19 54 -23 54 -5 0 -28 -7 -51
-15 -25 -9 -74 -15 -119 -14 l-76 1 78 13 c86 15 115 29 136 69 13 23 12 28
-4 46 -21 24 -48 26 -65 5 -18 -22 -47 -18 -61 6 -15 28 2 39 61 39 38 0 50 6
85 39 37 36 106 69 147 71 11 0 22 -16 33 -51z m-525 22 c0 -24 -10 -30 -34
-22 -17 7 -17 8 -2 24 23 22 36 21 36 -2z m-2241 -12 c25 -9 31 -17 31 -39 0
-15 3 -40 6 -56 4 -23 0 -32 -16 -42 -12 -7 -23 -12 -25 -10 -4 4 -33 158 -30
158 1 0 16 -5 34 -11z m2117 -65 c-7 -18 -17 -18 -41 0 -18 13 -17 14 11 29
25 13 29 14 32 1 2 -9 1 -22 -2 -30z m162 -12 c2 -7 -3 -12 -12 -12 -9 0 -16
7 -16 16 0 17 22 14 28 -4z m-2951 -28 c-3 -3 -12 -4 -19 -1 -8 3 -5 6 6 6 11
1 17 -2 13 -5z m2676 -30 c-5 -13 -52 -44 -68 -44 -18 0 0 33 27 50 34 20 51
18 41 -6z m167 -4 c0 -11 -7 -20 -15 -20 -17 0 -18 2 -9 24 9 23 24 20 24 -4z
m-90 -100 c-7 -16 -16 -27 -21 -24 -5 3 -2 19 7 35 20 39 31 30 14 -11z
m-2690 -4 c0 -8 -7 -16 -15 -20 -15 -5 -21 14 -8 27 11 12 23 8 23 -7z m2516
-33 c-10 -10 -19 5 -10 18 6 11 8 11 12 0 2 -7 1 -15 -2 -18z m376 -38 l-4
-45 -40 2 c-33 3 -44 -2 -59 -22 -10 -14 -21 -37 -25 -52 l-6 -28 56 0 c52 0
56 -2 56 -24 0 -18 -7 -25 -30 -29 -35 -7 -41 -41 -12 -63 15 -12 15 -15 2
-23 -32 -21 -100 78 -100 145 0 65 46 132 115 168 45 24 50 20 47 -29z m-249
0 c-9 -19 -18 -33 -21 -31 -4 5 26 66 33 66 3 0 -3 -16 -12 -35z m-1963 -11
c0 -14 -3 -14 -15 -4 -8 7 -15 14 -15 16 0 2 7 4 15 4 8 0 15 -7 15 -16z
m-652 -6 c-6 -18 -28 -21 -28 -4 0 9 7 16 16 16 9 0 14 -5 12 -12z m4002 -20
c67 -35 72 -52 28 -93 -95 -87 -333 -100 -424 -22 -34 30 -26 59 26 93 45 30
107 41 235 43 76 1 98 -3 135 -21z m-993 -36 c-10 -85 -32 -126 -83 -150 -55
-27 -73 -28 -23 -2 37 19 49 46 49 109 0 30 34 91 51 91 8 0 10 -15 6 -48z
m-527 -17 c15 9 12 -11 -2 -22 -21 -17 -66 -24 -74 -12 -3 6 2 28 11 50 l18
39 19 -30 c10 -17 23 -28 28 -25z m129 -155 c1 -22 -3 -25 -31 -25 -27 0 -34
-4 -36 -22 -3 -18 -10 -23 -30 -23 -15 0 -35 7 -45 14 -15 12 -16 18 -7 35 6
12 20 21 31 21 31 0 59 19 70 47 8 21 6 30 -10 47 -20 21 -20 21 1 55 l22 34
17 -79 c10 -43 18 -90 18 -104z m-2540 65 l0 -40 -19 35 c-23 41 -25 61 -7 79
10 10 13 7 19 -11 3 -13 6 -41 7 -63z m656 -11 c19 -29 9 -48 -20 -42 -28 5
-41 33 -26 52 18 22 26 20 46 -10z m1479 -176 c-38 -76 -47 -77 -59 -7 -5 30
1 50 31 110 l37 74 13 -53 c14 -52 14 -53 -22 -124z m2307 136 c27 -15 51 -36
55 -46 15 -47 -65 -101 -179 -120 -122 -20 -278 26 -285 83 -2 21 6 33 35 57
53 41 90 50 217 51 99 1 112 -1 157 -25z m-1855 -79 c-7 -19 -36 -19 -36 0 0
17 33 38 38 24 2 -5 1 -16 -2 -24z m-353 -70 c17 -24 17 -26 -39 -127 -31 -57
-58 -105 -60 -106 -1 -2 -7 13 -13 33 -9 33 -6 44 37 131 26 51 49 94 52 94 3
0 13 -12 23 -25z m971 10 c151 -39 167 -103 43 -165 -110 -54 -246 -60 -342
-14 -89 42 -79 98 27 154 76 41 176 50 272 25z m1722 -30 c93 -28 132 -97 83
-146 -45 -45 -107 -63 -214 -64 -112 0 -185 19 -229 60 -36 33 -33 66 8 103
32 28 49 34 161 56 48 9 145 5 191 -9z m-2601 -57 c14 -6 25 -14 25 -18 0 -3
-20 -16 -45 -28 -25 -12 -45 -20 -45 -17 0 6 33 75 36 75 2 0 15 -5 29 -12z
m-830 -70 c33 -15 32 -40 -5 -77 -40 -39 -121 -69 -239 -86 -160 -25 -266 -17
-278 21 -12 36 123 113 242 138 85 18 245 20 280 4z m2269 -58 c67 -26 106
-59 106 -90 0 -24 -43 -67 -80 -82 -59 -22 -177 -40 -231 -34 -76 7 -166 42
-185 71 -14 21 -14 27 1 54 17 35 79 78 140 98 56 18 176 10 249 -17z m1496 6
c0 -2 -7 -7 -16 -10 -8 -3 -12 -2 -9 4 6 10 25 14 25 6z m-4771 -15 c22 -14 5
-53 -37 -83 -93 -65 -312 -106 -414 -77 -104 28 29 128 212 158 73 12 221 13
239 2z m4696 -30 c-6 -5 -82 -53 -170 -108 -88 -55 -245 -154 -350 -220 -104
-66 -244 -154 -311 -196 -139 -88 -160 -97 -218 -97 -38 0 -206 51 -361 110
-27 10 -88 33 -135 50 -47 17 -123 47 -170 65 -85 34 -496 189 -600 227 -30
11 -68 26 -85 34 -16 8 -73 30 -125 49 -52 20 -84 34 -70 31 36 -6 281 -75
305 -86 18 -8 54 -20 80 -26 6 -2 136 -46 290 -99 330 -113 459 -152 655 -195
209 -46 257 -48 355 -16 83 27 246 108 426 210 57 32 147 82 199 111 52 29
136 78 185 108 82 51 125 72 100 48z m-3271 -23 c-8 -13 -91 -128 -122 -168
-10 -14 -43 -61 -73 -105 -30 -44 -60 -86 -67 -94 -11 -12 -9 -18 13 -39 15
-14 33 -40 41 -58 16 -39 18 -131 4 -168 -12 -32 -38 -34 -49 -3 -13 33 -19
169 -7 157 5 -5 9 -33 8 -62 -2 -69 6 -108 23 -108 19 0 29 60 21 127 -8 65
-18 87 -52 109 -23 16 -26 16 -38 -2 -12 -16 -12 -20 3 -32 14 -12 14 -12 -6
-7 -19 5 -28 -2 -52 -41 -35 -55 -30 -79 22 -92 27 -7 32 -13 32 -38 0 -25 -4
-29 -29 -32 -16 -2 -33 1 -38 6 -7 7 1 10 23 9 50 -3 49 25 -1 47 -22 9 -40
22 -40 27 0 20 -20 7 -26 -17 -5 -18 -1 -29 12 -39 11 -8 15 -14 9 -14 -5 0
-18 6 -29 14 -17 13 -20 11 -36 -18 -9 -18 -39 -75 -67 -127 -64 -118 -98
-238 -97 -340 0 -71 31 -230 100 -516 28 -120 28 -114 9 -114 -8 0 -15 6 -15
13 0 11 -147 532 -184 652 -31 100 -19 145 71 265 161 213 175 230 186 223 6
-4 7 -1 2 6 -8 13 28 54 39 44 3 -4 6 3 6 15 0 11 16 40 35 64 82 100 178 221
269 341 54 70 100 127 102 127 3 0 2 -5 -2 -12z m310 -193 c13 -88 22 -162 20
-164 -14 -15 -36 40 -62 157 -30 129 -30 135 -14 167 23 45 26 36 56 -160z
m2124 53 c80 -38 90 -104 24 -158 -54 -44 -123 -64 -222 -63 -139 1 -250 55
-250 123 0 38 27 65 96 97 44 20 64 24 102 19 27 -4 53 -2 62 4 22 16 137 2
188 -22z m-3114 -39 c70 -34 56 -83 -38 -129 -134 -64 -438 -92 -501 -46 -46
33 20 100 143 146 125 47 330 62 396 29z m250 -211 c-80 -101 -173 -218 -207
-261 -87 -111 -124 -157 -155 -195 l-28 -34 -239 -9 c-325 -12 -1687 -40
-1692 -35 -30 29 210 42 1397 76 208 6 347 14 385 23 86 20 152 57 215 121 49
50 53 58 42 76 -7 11 -8 20 -3 20 6 0 13 -5 16 -10 5 -8 11 -7 21 1 15 12 19
39 6 39 -16 0 -32 51 -25 78 7 25 8 23 13 -17 3 -26 12 -48 22 -55 23 -14 35
0 20 24 -17 28 -15 43 9 71 22 26 12 37 -20 20 -29 -16 -39 -13 -17 4 21 16
76 21 76 7 0 -5 -11 -19 -25 -32 -27 -25 -34 -60 -11 -60 21 0 96 89 89 105
-3 8 -9 15 -14 15 -5 0 -9 6 -9 12 0 7 9 4 20 -8 l21 -20 111 113 c62 62 116
113 120 113 4 0 -58 -82 -138 -182z m-1282 152 c101 -28 28 -112 -142 -162
-84 -25 -267 -36 -310 -18 -85 35 34 137 205 173 83 18 195 21 247 7z m4748
-13 c0 -5 -234 -180 -315 -236 -95 -66 -207 -161 -248 -211 -21 -25 -52 -74
-68 -109 l-31 -63 -9 -245 c-4 -135 -10 -248 -13 -250 -6 -7 -12 547 -5 600 9
72 7 71 339 294 136 91 337 220 348 222 1 1 2 -1 2 -2z m309 -36 c79 -79 22
-401 -92 -518 -38 -41 -70 -42 -94 -6 -24 36 -23 192 1 283 21 79 90 230 113
248 24 17 50 15 72 -7z m-3269 -6 c38 -20 77 -102 97 -205 31 -155 -15 -353
-89 -384 -46 -20 -81 0 -114 66 -38 74 -53 158 -49 269 5 116 31 202 75 242
35 31 41 32 80 12z m-662 -94 c9 -5 -5 -8 -36 -7 -28 0 -48 4 -45 9 6 10 65 9
81 -2z m-223 -26 c0 -10 -13 -26 -30 -35 -16 -9 -36 -27 -42 -41 -11 -20 -13
-21 -13 -5 0 26 28 56 53 56 15 0 18 5 14 25 -3 16 0 24 7 22 6 -2 11 -12 11
-22z m1008 4 c26 -30 15 -34 -13 -4 -13 14 -19 25 -14 25 5 0 18 -9 27 -21z
m-1413 -4 c-7 -9 -15 -13 -19 -10 -3 3 1 10 9 15 21 14 24 12 10 -5z m506 -15
c-14 -17 -28 -46 -32 -65 -6 -34 -5 -46 11 -90 7 -20 6 -20 -9 -1 -31 38 -17
125 25 165 33 30 35 26 5 -9z m618 -4 c-3 -9 -10 -16 -15 -16 -5 0 -4 9 3 20
14 22 21 20 12 -4z m-1024 5 c0 -10 -61 -34 -68 -26 -3 2 4 7 14 10 10 4 26
10 34 15 20 12 20 12 20 1z m50 -11 c0 -11 -4 -20 -10 -20 -5 0 -10 9 -10 20
0 11 5 20 10 20 6 0 10 -9 10 -20z m47 -12 c-3 -7 -5 -2 -5 12 0 14 2 19 5 13
2 -7 2 -19 0 -25z m88 -8 c-4 -12 -9 -19 -12 -17 -3 3 -2 15 2 27 4 12 9 19
12 17 3 -3 2 -15 -2 -27z m-324 -7 c-12 -20 -14 -14 -5 12 4 9 9 14 11 11 3
-2 0 -13 -6 -23z m1488 -76 c-1 -98 -6 -91 -12 15 -2 43 0 75 5 72 4 -3 8 -42
7 -87z m-337 -104 c7 -8 7 -13 0 -13 -17 0 -22 29 -20 118 l2 87 3 -89 c2 -50
9 -96 15 -103z m-857 132 c89 -45 38 -121 -123 -181 -236 -89 -521 -45 -433
67 38 49 190 112 316 132 72 12 200 2 240 -18z m-1031 -48 c34 -23 33 -52 -4
-87 -121 -113 -498 -165 -523 -71 -7 29 42 85 102 115 25 13 78 31 116 40 39
8 79 18 90 20 48 11 193 0 219 -17z m1096 -82 c-7 -8 -20 -15 -29 -14 -11 0
-10 3 7 11 12 6 22 18 23 27 0 11 2 12 6 3 3 -7 -1 -19 -7 -27z m1130 5 c0 -5
-9 -14 -20 -20 -14 -7 -20 -7 -20 0 0 5 7 10 16 10 8 0 12 5 9 10 -3 6 -1 10
4 10 6 0 11 -4 11 -10z m1395 -166 c148 -69 247 -300 185 -429 -29 -60 -69
-85 -138 -85 -67 0 -120 26 -183 91 -67 69 -101 145 -107 241 -4 64 -1 84 17
121 40 82 130 107 226 61z m-1973 -63 c46 -55 71 -136 76 -255 5 -114 -8 -191
-44 -253 -105 -182 -266 65 -225 345 26 183 113 256 193 163z m3395 -99 c23
-14 43 -81 43 -139 -1 -176 -109 -383 -200 -383 -47 0 -70 46 -70 141 0 85 29
197 57 220 9 8 28 42 44 75 36 80 84 113 126 86z m-3066 -98 c22 -11 40 -35
62 -82 31 -65 32 -71 32 -207 0 -126 -2 -145 -24 -193 -41 -90 -94 -114 -145
-67 -106 98 -113 430 -11 532 38 38 44 39 86 17z m-1230 -124 c147 -45 249
-159 249 -275 0 -69 -22 -110 -76 -144 -58 -37 -119 -47 -198 -33 -81 15 -151
52 -210 109 -59 58 -87 116 -88 182 -1 144 145 217 323 161z m2209 -1 c53 -16
80 -31 118 -68 50 -48 80 -91 64 -91 -7 0 -211 69 -341 115 -11 4 -10 9 4 25
15 17 37 27 83 39 2 1 35 -8 72 -20z m-3308 1 c47 -13 143 -71 186 -113 114
-109 104 -265 -21 -329 -58 -30 -170 -29 -250 2 -46 17 -56 25 -47 35 14 16
-15 35 -54 35 -16 0 -34 12 -54 38 -104 132 -90 266 33 323 45 21 147 25 207
9z m2680 -127 c28 -31 56 -100 60 -151 l3 -34 -110 -33 c-60 -19 -114 -34
-119 -35 -13 0 0 127 19 180 33 96 96 127 147 73z m608 -29 l145 -49 -94 -8
c-102 -10 -188 2 -216 29 -25 26 -18 91 9 81 6 -2 76 -26 156 -53z m780 -135
c224 -21 493 -78 637 -135 97 -38 220 -115 275 -171 94 -96 118 -217 64 -328
-40 -81 -166 -205 -274 -269 -46 -26 -92 -51 -103 -53 -18 -5 -178 93 -179
109 0 3 17 12 38 18 63 21 57 28 -11 13 -56 -13 -69 -13 -92 -1 -27 14 -26 15
54 38 45 13 84 27 87 31 9 15 -55 10 -136 -11 -63 -16 -84 -18 -104 -9 -14 7
-23 15 -21 19 2 4 35 17 72 30 37 12 73 27 78 32 7 7 3 8 -10 4 -11 -3 -60
-14 -109 -25 -83 -18 -92 -18 -128 -4 -22 9 -36 19 -31 23 4 4 55 20 112 35
130 34 154 42 146 55 -11 17 -62 11 -206 -25 l-140 -36 -87 34 c-48 19 -116
45 -152 58 -55 21 -61 24 -37 27 16 2 84 -4 151 -12 190 -25 320 -19 439 20
61 20 117 68 117 100 0 28 -57 73 -119 94 -42 13 -55 30 -24 30 13 0 14 3 5
12 -8 8 -45 13 -95 14 -45 1 -134 9 -197 18 -75 12 -141 15 -190 11 -121 -9
-172 -17 -163 -25 4 -4 49 -23 100 -43 86 -34 96 -36 180 -31 l88 5 -85 -34
-85 -34 -135 18 c-157 21 -335 24 -435 7 -89 -15 -116 -14 -190 2 l-60 13 50
15 c28 7 74 21 103 29 93 26 49 25 -89 -2 -103 -20 -149 -25 -198 -20 -35 4
-59 10 -55 14 5 4 86 24 179 45 226 50 245 55 245 66 0 19 -81 9 -316 -40
-232 -48 -327 -60 -338 -41 -7 10 184 58 383 95 294 56 816 71 1081 31 185
-28 443 -100 486 -136 8 -7 17 -9 20 -6 3 3 -14 20 -38 37 -126 92 -351 169
-605 207 -157 23 -526 22 -743 -1 -238 -26 -552 -100 -725 -173 -78 -33 -80
-33 -192 -26 -62 3 -113 9 -113 13 0 13 254 108 383 144 441 124 967 169 1437
125z m1059 -169 c33 -17 54 -98 42 -164 l-6 -39 -27 41 c-15 22 -48 61 -74 85
-28 28 -42 47 -35 51 26 16 67 36 74 36 5 0 16 -4 26 -10z m-2919 -180 c764
-46 1536 -233 2074 -502 227 -113 407 -262 469 -387 27 -56 32 -76 32 -137 -1
-62 -5 -78 -29 -115 -33 -50 -53 -71 -113 -117 -118 -92 -429 -183 -720 -212
-739 -72 -1772 74 -2478 351 -142 55 -429 200 -525 264 -181 121 -310 297
-295 403 16 115 97 212 230 277 300 145 791 209 1355 175z m2019 -44 c19 -23
-16 -40 -93 -44 -39 -3 -69 -2 -66 1 8 8 124 56 136 57 6 0 17 -6 23 -14z
m-3871 -254 c28 -14 52 -28 52 -32 0 -5 -325 -31 -393 -30 -25 0 -26 2 -15 21
26 41 79 64 163 69 101 7 127 3 193 -28z m146 -118 c4 -9 4 -32 0 -50 -6 -31
-9 -33 -58 -38 -28 -4 -143 -7 -256 -9 l-204 -2 -10 33 c-5 18 -7 35 -4 38 7
6 381 41 464 43 49 1 63 -2 68 -15z m4564 -132 c-3 -121 -6 -133 -36 -193 -18
-35 -43 -77 -57 -94 l-25 -30 0 170 0 169 53 53 c28 28 56 52 61 53 4 0 7 -58
4 -128z m-4574 -44 c-2 -13 -6 -40 -9 -60 l-6 -38 -160 0 c-101 0 -168 4 -182
11 -32 17 -97 69 -97 79 0 7 237 25 381 28 74 2 76 1 73 -20z m4385 -124 l2
-127 -39 49 c-21 27 -46 55 -55 63 -11 8 -17 28 -17 52 0 35 4 41 39 59 22 11
43 24 46 30 16 25 22 -8 24 -126z m-3938 -306 c7 -90 -28 -268 -52 -268 -18 0
-31 75 -25 144 10 104 22 136 52 136 13 0 24 -6 25 -12z m123 -74 c15 -39 -10
-280 -34 -325 -15 -27 -32 -20 -42 17 -10 35 7 205 28 274 15 50 36 65 48 34z
m199 -55 c21 -7 37 -20 37 -29 0 -28 -51 -355 -58 -372 -6 -14 -15 -12 -80 18
-58 27 -72 38 -68 51 3 10 15 72 26 138 12 66 28 136 36 155 16 37 42 63 59
57 5 -2 27 -10 48 -18z m366 -140 c394 -126 842 -216 1327 -264 201 -20 677
-30 834 -17 101 9 128 8 139 -3 13 -13 13 -14 -48 -335 -6 -31 -11 -36 -46
-43 -76 -14 -656 -20 -807 -8 -442 37 -810 94 -1163 182 -153 39 -437 128
-481 153 l-21 11 32 140 c43 191 43 192 61 209 22 22 31 21 173 -25z m3086
-59 c4 -6 -1 -36 -10 -68 -10 -31 -24 -82 -32 -112 -19 -73 -51 -126 -110
-181 -60 -56 -93 -76 -93 -56 0 27 70 317 81 334 9 16 131 90 151 92 4 1 10
-4 13 -9z m-313 -291 c-34 -175 -42 -193 -108 -224 -42 -20 -74 -12 -74 18 1
50 69 319 87 339 10 12 36 29 58 39 34 15 42 16 54 4 12 -11 9 -37 -17 -176z
m-248 95 c22 -8 20 -63 -8 -206 -24 -126 -38 -151 -94 -175 -36 -15 -67 -10
-75 11 -7 19 62 326 79 354 15 22 62 30 98 16z"/>
<path d="M4653 7073 c-19 -21 -71 -84 -115 -140 -44 -56 -96 -111 -114 -122
-66 -39 -24 -101 68 -101 26 0 36 -6 49 -28 18 -33 86 -62 116 -51 16 6 21 19
26 76 3 37 20 124 36 193 37 147 39 185 12 200 -31 16 -41 12 -78 -27z m7
-127 c0 -45 -45 -108 -64 -89 -13 13 -5 51 15 77 22 28 49 35 49 12z m-79
-167 c9 -17 8 -23 -2 -30 -33 -21 -59 -4 -59 37 0 23 48 17 61 -7z"/>
<path d="M4425 6579 c-98 -38 -210 -145 -203 -193 2 -12 17 -30 35 -41 20 -13
33 -31 37 -52 7 -35 34 -50 64 -34 10 5 36 7 58 4 59 -8 101 17 110 63 13 72
-16 275 -39 273 -7 0 -34 -9 -62 -20z"/>
<path d="M3850 5640 c-23 -44 -27 -84 -8 -78 16 6 44 54 53 91 11 43 -21 34
-45 -13z"/>
<path d="M3781 5494 c-27 -35 -56 -127 -47 -150 7 -18 9 -18 26 4 10 13 28 48
39 78 34 88 24 122 -18 68z"/>
<path d="M3598 5463 c-30 -56 -43 -109 -29 -117 21 -13 88 120 77 151 -9 23
-22 14 -48 -34z"/>
<path d="M4066 5468 c-45 -79 -57 -168 -19 -136 40 32 83 178 53 178 -5 0 -20
-19 -34 -42z"/>
<path d="M6400 5295 c-6 -19 -10 -45 -8 -57 3 -22 5 -21 21 9 18 34 23 83 8
83 -5 0 -15 -16 -21 -35z"/>
<path d="M6472 5193 c-17 -32 -24 -83 -12 -83 12 0 40 59 40 85 0 20 -17 19
-28 -2z"/>
<path d="M2879 6930 c0 -3 -1 -72 -3 -155 -2 -106 -8 -166 -20 -205 -29 -92
-27 -103 19 -112 22 -5 50 -6 63 -3 20 5 22 11 22 78 1 65 14 107 33 107 4 0
14 -14 23 -31 15 -31 15 -77 -1 -126 -13 -39 78 -70 120 -40 17 13 17 16 -7
68 -27 56 -48 157 -48 226 0 36 6 46 55 91 30 28 55 56 55 61 0 18 -77 35
-112 25 -27 -8 -34 -16 -40 -49 -8 -37 -42 -85 -60 -85 -13 0 -9 45 7 85 21
48 9 62 -55 67 -28 1 -50 1 -51 -2z"/>
<path d="M2745 5419 c-9 -26 3 -109 15 -109 15 0 22 40 15 86 -7 47 -20 57
-30 23z"/>
<path d="M2646 5304 c-10 -25 -7 -74 6 -97 11 -22 12 -21 19 8 9 32 1 105 -11
105 -4 0 -11 -7 -14 -16z"/>
<path d="M2936 5283 c-8 -8 -8 -71 0 -100 11 -39 24 -14 24 42 0 51 -9 73 -24
58z"/>
<path d="M2747 5263 c-10 -10 -8 -96 3 -113 15 -24 23 -4 22 52 -1 50 -11 75
-25 61z"/>
<path d="M1932 5877 c-15 -16 -22 -36 -22 -65 0 -38 3 -44 35 -59 19 -9 35
-23 35 -30 0 -16 -1 -16 -36 2 -39 20 -66 19 -98 -6 -33 -26 -36 -79 -6 -109
29 -29 84 -27 116 5 14 14 27 25 29 25 10 0 4 -37 -17 -102 -12 -37 -19 -70
-16 -73 7 -7 150 15 161 25 4 3 -8 26 -27 51 -19 24 -38 57 -42 74 l-7 29 26
-17 c57 -37 127 -2 127 66 0 75 -87 104 -141 46 -23 -25 -29 -27 -29 -13 0 10
10 28 22 41 30 32 30 89 -1 114 -32 26 -82 24 -109 -4z"/>
<path d="M2192 5013 c3 -50 21 -66 26 -24 5 31 -6 71 -19 71 -6 0 -9 -19 -7
-47z"/>
<path d="M2210 4878 c0 -53 15 -81 30 -58 9 14 5 74 -6 92 -13 20 -24 4 -24
-34z"/>
<path d="M2036 4893 c-8 -8 -8 -66 0 -87 11 -28 24 -6 24 39 0 42 -10 62 -24
48z"/>
<path d="M1285 5761 c-80 -38 -93 -65 -40 -89 45 -21 134 -233 121 -287 -12
-46 -86 -39 -86 8 0 42 -13 51 -54 36 -27 -10 -36 -19 -36 -36 0 -70 62 -133
129 -133 70 0 151 71 151 132 0 13 -18 75 -41 138 -37 107 -51 193 -34 220 7
11 -26 30 -52 30 -10 0 -36 -9 -58 -19z"/>
<path d="M1375 2833 c-70 -19 -47 -48 36 -46 84 3 177 23 157 34 -19 10 -166
20 -193 12z"/>
<path d="M4804 2710 c-36 -14 -38 -30 -4 -30 28 0 90 24 90 35 0 8 -64 4 -86
-5z"/>
<path d="M4953 2655 c-34 -14 -44 -35 -18 -35 23 0 95 31 95 41 0 13 -40 10
-77 -6z"/>
<path d="M4811 2617 c-36 -13 -54 -37 -27 -37 24 0 96 31 96 41 0 12 -28 10
-69 -4z"/>
<path d="M5866 2335 c-10 -7 -15 -19 -11 -25 12 -20 85 7 85 31 0 14 -53 10
-74 -6z"/>
<path d="M6063 2293 c-24 -5 -49 -30 -39 -40 11 -11 81 11 81 26 0 16 -11 20
-42 14z"/>
<path d="M5933 2245 c-44 -19 -51 -35 -13 -35 34 0 70 15 70 29 0 16 -26 19
-57 6z"/>
<path d="M5990 2180 c-8 -5 -11 -12 -8 -16 10 -9 58 4 58 16 0 13 -30 13 -50
0z"/>
<path d="M6020 2110 c-13 -9 -13 -10 0 -10 8 0 22 5 30 10 13 9 13 10 0 10 -8
0 -22 -5 -30 -10z"/>
<path d="M3175 2449 c-323 -28 -634 -128 -747 -241 -86 -86 -108 -202 -58
-303 93 -187 525 -437 917 -530 81 -20 222 -54 313 -75 91 -22 212 -51 270
-65 218 -52 582 -79 951 -72 264 5 365 14 457 38 65 18 51 32 -25 25 -309 -26
-758 -7 -1153 50 -599 85 -1168 269 -1415 458 -197 150 -256 268 -187 377 16
24 38 52 48 61 32 28 164 86 256 112 175 50 286 61 623 60 344 0 468 -9 761
-55 642 -99 1042 -225 1439 -453 164 -94 119 -31 -67 93 -388 260 -854 408
-1573 500 -187 24 -635 35 -810 20z"/>
<path d="M2675 2435 c-100 -18 -180 -43 -261 -80 -89 -41 -185 -105 -208 -139
-16 -25 -16 -26 3 -26 10 0 45 21 77 46 95 73 216 128 351 159 65 15 138 33
163 40 l45 13 -50 0 c-27 0 -81 -6 -120 -13z"/>
<path d="M3320 2276 l-55 -12 29 -16 c34 -18 33 -19 -59 -47 -222 -67 -229
-170 -20 -267 162 -75 329 -99 633 -90 l222 6 149 -75 c82 -41 164 -83 183
-95 l33 -20 -65 6 c-94 8 -206 33 -276 61 l-61 24 -179 -52 c-99 -28 -190 -55
-204 -59 -24 -7 -22 -9 25 -30 139 -61 319 -106 529 -131 107 -13 359 -7 479
11 l67 10 128 -64 127 -64 83 18 c46 10 85 20 87 22 3 2 -50 31 -116 63 l-120
60 85 27 c109 35 163 69 182 114 61 145 -271 318 -701 365 -74 8 -190 10 -352
5 l-242 -6 -115 54 c-64 30 -116 57 -116 59 0 7 90 -3 168 -19 l73 -15 142 42
c78 23 148 45 156 49 18 9 -131 45 -249 60 -110 13 -268 13 -401 -1 -92 -10
-110 -9 -137 5 -35 18 -37 18 -112 2z m303 -198 l102 -53 -43 -3 c-79 -6 -202
37 -202 71 0 8 28 36 38 37 1 0 48 -24 105 -52z m1165 -179 c119 -31 182 -73
182 -119 0 -22 -45 -63 -97 -89 -54 -27 -67 -27 -53 -2 20 38 12 97 -17 132
-27 32 -133 89 -165 89 -9 0 -20 5 -23 10 -9 15 79 4 173 -21z m-204 -69 c76
-29 111 -62 96 -90 -6 -11 -23 -26 -38 -34 -26 -13 -35 -10 -197 70 l-170 84
125 -4 c100 -3 137 -8 184 -26z"/>
<path d="M5740 1755 c0 -8 9 -19 20 -25 15 -8 20 -8 20 3 0 14 -19 37 -32 37
-4 0 -8 -7 -8 -15z"/>
<path d="M5533 1293 c-7 -2 -13 -9 -13 -14 0 -15 64 -10 86 6 18 13 16 14 -21
14 -22 0 -46 -3 -52 -6z"/>
<path d="M5406 1261 c-44 -9 -45 -31 -1 -31 41 0 78 16 70 31 -7 10 -24 10
-69 0z"/>
<path d="M2942 1174 c-15 -32 -42 -184 -42 -235 0 -25 5 -39 13 -39 33 0 77
134 77 237 0 55 -2 63 -18 63 -11 0 -24 -12 -30 -26z"/>
<path d="M3103 1152 c-31 -20 -43 -114 -19 -148 14 -18 15 -18 33 -1 14 14 18
33 18 84 0 65 -8 80 -32 65z"/>
<path d="M3260 1035 c-20 -24 -31 -102 -18 -130 13 -30 20 -31 41 -7 22 24 33
103 18 131 -14 25 -24 26 -41 6z"/>
<path d="M5154 912 c-29 -20 -55 -194 -35 -244 15 -40 38 -35 51 10 18 66 24
205 8 224 -7 10 -18 14 -24 10z"/>
<path d="M4970 820 c-30 -30 -26 -113 6 -118 25 -4 44 33 44 82 0 47 -22 64
-50 36z"/>
</g>
</svg>
